<svg xmlns="http://www.w3.org/2000/svg" xmlns:xlink="http://www.w3.org/1999/xlink" width="635" zoomAndPan="magnify" viewBox="0 0 476.25 478.499994" height="638" preserveAspectRatio="xMidYMid meet" version="1.0"><defs><clipPath id="c1d555025c"><path d="M 380 424 L 474.753906 424 L 474.753906 477.875 L 380 477.875 Z M 380 424 " clip-rule="nonzero"/></clipPath><clipPath id="9c92cdf82d"><path d="M 380 103 L 474.753906 103 L 474.753906 157 L 380 157 Z M 380 103 " clip-rule="nonzero"/></clipPath><clipPath id="04418d1cc1"><path d="M 320 0.125 L 375 0.125 L 375 95 L 320 95 Z M 320 0.125 " clip-rule="nonzero"/></clipPath><clipPath id="a7d69c75f3"><path d="M 0 0.125 L 54 0.125 L 54 95 L 0 95 Z M 0 0.125 " clip-rule="nonzero"/></clipPath><clipPath id="803c352126"><path d="M 95.199219 121.589844 L 109.980469 121.589844 L 109.980469 128.121094 L 95.199219 128.121094 Z M 95.199219 121.589844 " clip-rule="nonzero"/></clipPath></defs><path fill="#ffdae7" d="M 351.605469 461.421875 L 22.703125 461.421875 C 22.273438 461.421875 21.851562 461.378906 21.429688 461.296875 C 21.007812 461.214844 20.601562 461.089844 20.207031 460.925781 C 19.808594 460.761719 19.433594 460.5625 19.078125 460.324219 C 18.722656 460.085938 18.390625 459.8125 18.089844 459.511719 C 17.785156 459.207031 17.515625 458.878906 17.277344 458.523438 C 17.039062 458.167969 16.835938 457.789062 16.675781 457.394531 C 16.511719 457 16.386719 456.589844 16.300781 456.171875 C 16.21875 455.75 16.175781 455.324219 16.175781 454.898438 L 16.175781 125.992188 C 16.175781 125.566406 16.21875 125.140625 16.300781 124.722656 C 16.386719 124.300781 16.511719 123.890625 16.675781 123.496094 C 16.835938 123.101562 17.039062 122.726562 17.277344 122.367188 C 17.515625 122.011719 17.785156 121.683594 18.089844 121.378906 C 18.390625 121.078125 18.722656 120.804688 19.078125 120.566406 C 19.433594 120.328125 19.808594 120.128906 20.207031 119.964844 C 20.601562 119.800781 21.007812 119.675781 21.429688 119.59375 C 21.851562 119.511719 22.273438 119.46875 22.703125 119.46875 L 351.605469 119.46875 C 352.035156 119.46875 352.457031 119.511719 352.878906 119.59375 C 353.296875 119.675781 353.707031 119.800781 354.101562 119.964844 C 354.5 120.128906 354.875 120.328125 355.230469 120.566406 C 355.585938 120.804688 355.917969 121.078125 356.21875 121.378906 C 356.523438 121.683594 356.792969 122.011719 357.03125 122.367188 C 357.269531 122.726562 357.46875 123.101562 357.632812 123.496094 C 357.796875 123.890625 357.921875 124.300781 358.003906 124.722656 C 358.089844 125.140625 358.128906 125.566406 358.128906 125.992188 L 358.128906 454.898438 C 358.128906 455.324219 358.089844 455.75 358.003906 456.171875 C 357.921875 456.589844 357.796875 457 357.632812 457.394531 C 357.46875 457.789062 357.269531 458.167969 357.03125 458.523438 C 356.792969 458.878906 356.523438 459.207031 356.21875 459.511719 C 355.917969 459.8125 355.585938 460.085938 355.230469 460.324219 C 354.875 460.5625 354.5 460.761719 354.101562 460.925781 C 353.707031 461.089844 353.296875 461.214844 352.878906 461.296875 C 352.457031 461.378906 352.035156 461.421875 351.605469 461.421875 Z M 29.226562 448.371094 L 345.078125 448.371094 L 345.078125 132.519531 L 29.226562 132.519531 Z M 29.226562 448.371094 " fill-opacity="1" fill-rule="nonzero"/><g clip-path="url(#c1d555025c)"><path fill="#ffdae7" d="M 427.371094 477.484375 C 426.507812 477.488281 425.675781 477.324219 424.875 476.992188 C 424.074219 476.660156 423.367188 476.1875 422.757812 475.574219 L 382.359375 435.179688 C 382.058594 434.875 381.789062 434.546875 381.550781 434.191406 C 381.3125 433.832031 381.109375 433.457031 380.945312 433.0625 C 380.78125 432.664062 380.660156 432.257812 380.574219 431.835938 C 380.492188 431.417969 380.449219 430.992188 380.449219 430.5625 C 380.449219 430.136719 380.492188 429.710938 380.574219 429.289062 C 380.660156 428.871094 380.78125 428.460938 380.945312 428.066406 C 381.109375 427.671875 381.3125 427.292969 381.550781 426.9375 C 381.789062 426.582031 382.058594 426.253906 382.359375 425.949219 C 382.664062 425.648438 382.992188 425.375 383.351562 425.136719 C 383.707031 424.898438 384.082031 424.699219 384.476562 424.535156 C 384.875 424.371094 385.28125 424.246094 385.703125 424.164062 C 386.121094 424.082031 386.546875 424.039062 386.976562 424.039062 C 387.402344 424.039062 387.828125 424.082031 388.25 424.164062 C 388.667969 424.246094 389.078125 424.371094 389.472656 424.535156 C 389.867188 424.699219 390.246094 424.898438 390.601562 425.136719 C 390.957031 425.375 391.285156 425.648438 391.589844 425.949219 L 427.371094 461.730469 L 463.15625 425.949219 C 463.457031 425.648438 463.789062 425.378906 464.144531 425.140625 C 464.5 424.902344 464.878906 424.703125 465.273438 424.539062 C 465.667969 424.375 466.074219 424.253906 466.496094 424.171875 C 466.914062 424.085938 467.339844 424.046875 467.769531 424.046875 C 468.195312 424.046875 468.621094 424.089844 469.039062 424.171875 C 469.460938 424.257812 469.867188 424.378906 470.261719 424.542969 C 470.65625 424.707031 471.03125 424.910156 471.386719 425.148438 C 471.746094 425.386719 472.074219 425.65625 472.375 425.957031 C 472.679688 426.261719 472.949219 426.589844 473.1875 426.945312 C 473.425781 427.300781 473.625 427.675781 473.789062 428.074219 C 473.953125 428.46875 474.078125 428.875 474.160156 429.296875 C 474.246094 429.714844 474.289062 430.136719 474.289062 430.566406 C 474.289062 430.996094 474.246094 431.417969 474.164062 431.839844 C 474.082031 432.257812 473.957031 432.667969 473.792969 433.0625 C 473.632812 433.457031 473.429688 433.832031 473.195312 434.191406 C 472.957031 434.546875 472.6875 434.875 472.382812 435.179688 L 431.988281 475.574219 C 431.375 476.1875 430.667969 476.660156 429.871094 476.992188 C 429.070312 477.324219 428.238281 477.488281 427.371094 477.484375 Z M 427.371094 477.484375 " fill-opacity="1" fill-rule="nonzero"/></g><g clip-path="url(#9c92cdf82d)"><path fill="#ffdae7" d="M 467.769531 156.808594 C 466.90625 156.808594 466.070312 156.644531 465.273438 156.3125 C 464.472656 155.980469 463.765625 155.507812 463.15625 154.894531 L 427.371094 119.113281 L 391.589844 154.894531 C 391.285156 155.199219 390.957031 155.46875 390.601562 155.707031 C 390.246094 155.945312 389.867188 156.148438 389.472656 156.3125 C 389.078125 156.476562 388.667969 156.597656 388.25 156.683594 C 387.828125 156.765625 387.402344 156.808594 386.976562 156.808594 C 386.546875 156.808594 386.121094 156.765625 385.703125 156.683594 C 385.28125 156.597656 384.875 156.476562 384.476562 156.3125 C 384.082031 156.148438 383.707031 155.945312 383.351562 155.707031 C 382.992188 155.46875 382.664062 155.199219 382.359375 154.894531 C 382.058594 154.59375 381.789062 154.265625 381.550781 153.90625 C 381.3125 153.550781 381.109375 153.175781 380.945312 152.777344 C 380.78125 152.382812 380.660156 151.976562 380.574219 151.554688 C 380.492188 151.136719 380.449219 150.710938 380.449219 150.28125 C 380.449219 149.851562 380.492188 149.429688 380.574219 149.007812 C 380.660156 148.589844 380.78125 148.179688 380.945312 147.785156 C 381.109375 147.390625 381.3125 147.011719 381.550781 146.65625 C 381.789062 146.300781 382.058594 145.96875 382.359375 145.667969 L 422.757812 105.269531 C 423.0625 104.96875 423.390625 104.695312 423.746094 104.457031 C 424.101562 104.21875 424.480469 104.019531 424.875 103.855469 C 425.269531 103.691406 425.679688 103.566406 426.097656 103.484375 C 426.519531 103.402344 426.945312 103.359375 427.371094 103.359375 C 427.800781 103.359375 428.226562 103.402344 428.644531 103.484375 C 429.066406 103.566406 429.472656 103.691406 429.871094 103.855469 C 430.265625 104.019531 430.640625 104.21875 430.996094 104.457031 C 431.355469 104.695312 431.683594 104.96875 431.988281 105.269531 L 472.382812 145.667969 C 472.839844 146.125 473.222656 146.636719 473.523438 147.207031 C 473.828125 147.773438 474.042969 148.375 474.171875 149.007812 C 474.296875 149.640625 474.328125 150.28125 474.265625 150.921875 C 474.203125 151.5625 474.046875 152.183594 473.800781 152.777344 C 473.550781 153.375 473.222656 153.921875 472.816406 154.421875 C 472.40625 154.921875 471.933594 155.347656 471.394531 155.707031 C 470.859375 156.066406 470.28125 156.339844 469.664062 156.527344 C 469.046875 156.714844 468.414062 156.808594 467.769531 156.808594 Z M 467.769531 156.808594 " fill-opacity="1" fill-rule="nonzero"/></g><path fill="#ffdae7" d="M 427.390625 473.867188 C 426.964844 473.867188 426.539062 473.824219 426.117188 473.738281 C 425.699219 473.65625 425.289062 473.53125 424.894531 473.367188 C 424.5 473.203125 424.121094 473.003906 423.765625 472.765625 C 423.410156 472.527344 423.082031 472.257812 422.777344 471.953125 C 422.476562 471.652344 422.203125 471.320312 421.964844 470.964844 C 421.726562 470.609375 421.527344 470.234375 421.363281 469.835938 C 421.199219 469.441406 421.074219 469.035156 420.992188 468.613281 C 420.910156 468.191406 420.867188 467.769531 420.867188 467.339844 L 420.867188 121.90625 C 420.867188 121.476562 420.910156 121.050781 420.992188 120.632812 C 421.074219 120.210938 421.199219 119.804688 421.363281 119.40625 C 421.527344 119.011719 421.726562 118.636719 421.964844 118.277344 C 422.203125 117.921875 422.476562 117.59375 422.777344 117.289062 C 423.082031 116.988281 423.410156 116.714844 423.765625 116.480469 C 424.121094 116.242188 424.5 116.039062 424.894531 115.875 C 425.289062 115.710938 425.699219 115.589844 426.117188 115.503906 C 426.539062 115.421875 426.964844 115.378906 427.390625 115.378906 C 427.820312 115.378906 428.246094 115.421875 428.664062 115.503906 C 429.085938 115.589844 429.492188 115.710938 429.890625 115.875 C 430.285156 116.039062 430.660156 116.242188 431.015625 116.480469 C 431.375 116.714844 431.703125 116.988281 432.007812 117.289062 C 432.308594 117.59375 432.578125 117.921875 432.816406 118.277344 C 433.054688 118.636719 433.257812 119.011719 433.421875 119.40625 C 433.585938 119.804688 433.707031 120.210938 433.792969 120.632812 C 433.875 121.050781 433.917969 121.476562 433.917969 121.90625 L 433.917969 467.339844 C 433.917969 467.769531 433.875 468.191406 433.792969 468.613281 C 433.707031 469.035156 433.585938 469.441406 433.421875 469.835938 C 433.257812 470.234375 433.054688 470.609375 432.816406 470.964844 C 432.578125 471.320312 432.308594 471.652344 432.007812 471.953125 C 431.703125 472.257812 431.375 472.527344 431.019531 472.765625 C 430.660156 473.003906 430.285156 473.203125 429.890625 473.367188 C 429.492188 473.53125 429.085938 473.65625 428.664062 473.738281 C 428.246094 473.824219 427.820312 473.867188 427.390625 473.867188 Z M 427.390625 473.867188 " fill-opacity="1" fill-rule="nonzero"/><g clip-path="url(#04418d1cc1)"><path fill="#ffdae7" d="M 327.289062 94.578125 C 326.644531 94.578125 326.011719 94.484375 325.394531 94.296875 C 324.777344 94.109375 324.199219 93.839844 323.664062 93.480469 C 323.125 93.121094 322.652344 92.691406 322.242188 92.195312 C 321.835938 91.695312 321.507812 91.148438 321.257812 90.550781 C 321.011719 89.953125 320.859375 89.335938 320.792969 88.695312 C 320.730469 88.050781 320.761719 87.414062 320.886719 86.78125 C 321.015625 86.148438 321.230469 85.546875 321.535156 84.976562 C 321.835938 84.410156 322.21875 83.894531 322.675781 83.4375 L 358.457031 47.65625 L 322.675781 11.871094 C 322.371094 11.570312 322.101562 11.238281 321.863281 10.882812 C 321.625 10.527344 321.425781 10.152344 321.261719 9.757812 C 321.097656 9.359375 320.976562 8.953125 320.894531 8.53125 C 320.808594 8.113281 320.769531 7.6875 320.769531 7.261719 C 320.769531 6.832031 320.8125 6.40625 320.894531 5.988281 C 320.976562 5.566406 321.101562 5.160156 321.265625 4.765625 C 321.429688 4.371094 321.632812 3.992188 321.867188 3.636719 C 322.105469 3.28125 322.378906 2.953125 322.679688 2.648438 C 322.984375 2.347656 323.3125 2.078125 323.667969 1.839844 C 324.023438 1.601562 324.398438 1.398438 324.796875 1.234375 C 325.191406 1.070312 325.597656 0.949219 326.019531 0.863281 C 326.4375 0.78125 326.863281 0.738281 327.289062 0.738281 C 327.71875 0.738281 328.140625 0.78125 328.5625 0.863281 C 328.980469 0.945312 329.390625 1.070312 329.785156 1.234375 C 330.179688 1.394531 330.558594 1.597656 330.914062 1.835938 C 331.269531 2.070312 331.601562 2.339844 331.902344 2.644531 L 372.300781 43.042969 C 372.605469 43.34375 372.875 43.675781 373.113281 44.03125 C 373.351562 44.386719 373.550781 44.761719 373.714844 45.160156 C 373.878906 45.554688 374.003906 45.964844 374.085938 46.382812 C 374.171875 46.804688 374.210938 47.226562 374.210938 47.65625 C 374.210938 48.085938 374.171875 48.507812 374.085938 48.929688 C 374.003906 49.351562 373.878906 49.757812 373.714844 50.152344 C 373.550781 50.550781 373.351562 50.925781 373.113281 51.28125 C 372.875 51.636719 372.605469 51.96875 372.300781 52.269531 L 331.902344 92.667969 C 331.292969 93.28125 330.585938 93.753906 329.785156 94.085938 C 328.988281 94.414062 328.152344 94.582031 327.289062 94.578125 Z M 327.289062 94.578125 " fill-opacity="1" fill-rule="nonzero"/></g><g clip-path="url(#a7d69c75f3)"><path fill="#ffdae7" d="M 47.007812 94.578125 C 46.140625 94.582031 45.308594 94.414062 44.507812 94.085938 C 43.710938 93.753906 43.003906 93.28125 42.390625 92.667969 L 1.996094 52.269531 C 1.691406 51.96875 1.421875 51.636719 1.183594 51.28125 C 0.945312 50.925781 0.746094 50.550781 0.582031 50.152344 C 0.417969 49.757812 0.292969 49.351562 0.210938 48.929688 C 0.125 48.507812 0.0859375 48.085938 0.0859375 47.65625 C 0.0859375 47.226562 0.125 46.804688 0.210938 46.382812 C 0.292969 45.964844 0.417969 45.554688 0.582031 45.160156 C 0.746094 44.761719 0.945312 44.386719 1.183594 44.03125 C 1.421875 43.675781 1.691406 43.34375 1.996094 43.042969 L 42.390625 2.644531 C 42.695312 2.339844 43.023438 2.070312 43.382812 1.832031 C 43.738281 1.59375 44.113281 1.390625 44.507812 1.226562 C 44.90625 1.0625 45.3125 0.941406 45.734375 0.855469 C 46.15625 0.773438 46.578125 0.730469 47.007812 0.730469 C 47.4375 0.730469 47.859375 0.773438 48.28125 0.855469 C 48.703125 0.9375 49.109375 1.0625 49.507812 1.226562 C 49.902344 1.390625 50.277344 1.589844 50.636719 1.828125 C 50.992188 2.066406 51.320312 2.339844 51.625 2.640625 C 51.925781 2.945312 52.199219 3.273438 52.4375 3.628906 C 52.675781 3.988281 52.875 4.363281 53.039062 4.757812 C 53.203125 5.15625 53.328125 5.5625 53.410156 5.984375 C 53.492188 6.40625 53.535156 6.828125 53.535156 7.257812 C 53.535156 7.6875 53.492188 8.109375 53.410156 8.53125 C 53.324219 8.953125 53.203125 9.359375 53.039062 9.753906 C 52.875 10.152344 52.671875 10.527344 52.433594 10.882812 C 52.195312 11.242188 51.925781 11.570312 51.621094 11.871094 L 15.839844 47.65625 L 51.621094 83.4375 C 52.078125 83.894531 52.457031 84.410156 52.761719 84.976562 C 53.066406 85.546875 53.28125 86.148438 53.40625 86.78125 C 53.535156 87.414062 53.566406 88.050781 53.5 88.695312 C 53.4375 89.335938 53.28125 89.953125 53.035156 90.550781 C 52.789062 91.148438 52.460938 91.695312 52.050781 92.195312 C 51.640625 92.691406 51.167969 93.121094 50.632812 93.480469 C 50.097656 93.839844 49.519531 94.109375 48.902344 94.296875 C 48.285156 94.484375 47.652344 94.578125 47.007812 94.578125 Z M 47.007812 94.578125 " fill-opacity="1" fill-rule="nonzero"/></g><path fill="#ffdae7" d="M 364.046875 54.210938 L 18.613281 54.210938 C 18.183594 54.210938 17.757812 54.167969 17.339844 54.085938 C 16.917969 54 16.511719 53.878906 16.113281 53.714844 C 15.71875 53.550781 15.34375 53.347656 14.988281 53.109375 C 14.628906 52.871094 14.300781 52.601562 13.996094 52.296875 C 13.695312 51.996094 13.425781 51.664062 13.1875 51.308594 C 12.949219 50.953125 12.746094 50.578125 12.582031 50.179688 C 12.417969 49.785156 12.296875 49.378906 12.210938 48.957031 C 12.128906 48.535156 12.085938 48.113281 12.085938 47.683594 C 12.085938 47.253906 12.128906 46.832031 12.210938 46.410156 C 12.296875 45.992188 12.417969 45.582031 12.582031 45.1875 C 12.746094 44.789062 12.949219 44.414062 13.1875 44.058594 C 13.425781 43.703125 13.695312 43.371094 13.996094 43.070312 C 14.300781 42.765625 14.628906 42.496094 14.988281 42.257812 C 15.34375 42.019531 15.71875 41.820312 16.113281 41.65625 C 16.511719 41.492188 16.917969 41.367188 17.339844 41.285156 C 17.757812 41.199219 18.183594 41.15625 18.613281 41.15625 L 364.046875 41.15625 C 364.476562 41.15625 364.902344 41.199219 365.320312 41.285156 C 365.742188 41.367188 366.148438 41.492188 366.546875 41.65625 C 366.941406 41.820312 367.316406 42.019531 367.671875 42.257812 C 368.03125 42.496094 368.359375 42.765625 368.664062 43.070312 C 368.964844 43.371094 369.234375 43.703125 369.472656 44.058594 C 369.710938 44.414062 369.914062 44.789062 370.078125 45.1875 C 370.242188 45.582031 370.363281 45.992188 370.449219 46.410156 C 370.53125 46.832031 370.574219 47.253906 370.574219 47.683594 C 370.574219 48.113281 370.53125 48.535156 370.449219 48.957031 C 370.363281 49.378906 370.242188 49.785156 370.078125 50.179688 C 369.914062 50.578125 369.710938 50.953125 369.472656 51.308594 C 369.234375 51.664062 368.964844 51.996094 368.664062 52.296875 C 368.359375 52.601562 368.03125 52.871094 367.671875 53.109375 C 367.316406 53.347656 366.941406 53.550781 366.546875 53.714844 C 366.148438 53.878906 365.742188 54 365.320312 54.085938 C 364.902344 54.167969 364.476562 54.210938 364.046875 54.210938 Z M 364.046875 54.210938 " fill-opacity="1" fill-rule="nonzero"/><path fill="#ffdae7" d="M 351.605469 157.273438 C 350.78125 157.277344 350.058594 157.003906 349.441406 156.457031 L 317.769531 128.4375 C 317.445312 128.152344 317.1875 127.8125 316.996094 127.425781 C 316.804688 127.035156 316.699219 126.625 316.671875 126.191406 C 316.644531 125.757812 316.699219 125.339844 316.839844 124.929688 C 316.980469 124.519531 317.195312 124.152344 317.484375 123.828125 C 317.769531 123.503906 318.109375 123.246094 318.5 123.054688 C 318.886719 122.863281 319.300781 122.757812 319.730469 122.730469 C 320.164062 122.707031 320.585938 122.761719 320.996094 122.90625 C 321.40625 123.046875 321.769531 123.261719 322.09375 123.550781 L 353.765625 151.566406 C 354.015625 151.789062 354.226562 152.039062 354.394531 152.324219 C 354.566406 152.605469 354.695312 152.90625 354.773438 153.230469 C 354.851562 153.550781 354.882812 153.878906 354.863281 154.207031 C 354.84375 154.539062 354.773438 154.859375 354.65625 155.167969 C 354.539062 155.476562 354.378906 155.761719 354.171875 156.023438 C 353.96875 156.285156 353.730469 156.507812 353.457031 156.699219 C 353.1875 156.886719 352.890625 157.027344 352.574219 157.128906 C 352.257812 157.226562 351.933594 157.273438 351.605469 157.273438 Z M 351.605469 157.273438 " fill-opacity="1" fill-rule="nonzero"/><path fill="#ffdae7" d="M 351.605469 190.511719 C 350.78125 190.515625 350.058594 190.242188 349.441406 189.695312 L 280.183594 128.4375 C 279.859375 128.152344 279.597656 127.8125 279.410156 127.425781 C 279.21875 127.035156 279.109375 126.625 279.082031 126.191406 C 279.054688 125.757812 279.113281 125.339844 279.253906 124.929688 C 279.394531 124.519531 279.609375 124.152344 279.894531 123.828125 C 280.183594 123.503906 280.519531 123.246094 280.910156 123.054688 C 281.300781 122.863281 281.710938 122.757812 282.144531 122.730469 C 282.574219 122.707031 282.996094 122.761719 283.40625 122.90625 C 283.816406 123.046875 284.183594 123.261719 284.507812 123.550781 L 353.765625 184.804688 C 354.015625 185.027344 354.226562 185.277344 354.394531 185.558594 C 354.566406 185.84375 354.695312 186.144531 354.773438 186.46875 C 354.851562 186.789062 354.882812 187.113281 354.863281 187.445312 C 354.84375 187.777344 354.773438 188.097656 354.65625 188.40625 C 354.539062 188.714844 354.378906 189 354.171875 189.261719 C 353.96875 189.523438 353.730469 189.746094 353.457031 189.933594 C 353.1875 190.125 352.890625 190.265625 352.574219 190.363281 C 352.257812 190.464844 351.933594 190.511719 351.605469 190.511719 Z M 351.605469 190.511719 " fill-opacity="1" fill-rule="nonzero"/><path fill="#ffdae7" d="M 351.605469 223.664062 C 350.78125 223.664062 350.0625 223.394531 349.445312 222.847656 L 242.59375 128.4375 C 242.273438 128.152344 242.015625 127.816406 241.828125 127.425781 C 241.636719 127.039062 241.53125 126.628906 241.503906 126.195312 C 241.476562 125.765625 241.535156 125.34375 241.675781 124.9375 C 241.816406 124.527344 242.03125 124.160156 242.316406 123.839844 C 242.601562 123.515625 242.9375 123.257812 243.328125 123.066406 C 243.714844 122.878906 244.125 122.769531 244.554688 122.742188 C 244.988281 122.714844 245.40625 122.773438 245.816406 122.910156 C 246.226562 123.050781 246.589844 123.261719 246.914062 123.550781 L 353.765625 217.957031 C 354.015625 218.175781 354.222656 218.425781 354.394531 218.710938 C 354.566406 218.992188 354.691406 219.296875 354.773438 219.617188 C 354.851562 219.941406 354.882812 220.265625 354.863281 220.597656 C 354.84375 220.925781 354.773438 221.246094 354.65625 221.558594 C 354.539062 221.867188 354.378906 222.152344 354.175781 222.414062 C 353.96875 222.675781 353.730469 222.898438 353.457031 223.085938 C 353.1875 223.273438 352.890625 223.417969 352.574219 223.515625 C 352.257812 223.617188 351.933594 223.664062 351.605469 223.664062 Z M 351.605469 223.664062 " fill-opacity="1" fill-rule="nonzero"/><path fill="#ffdae7" d="M 351.605469 256.902344 C 350.78125 256.902344 350.058594 256.628906 349.441406 256.085938 L 205.089844 128.4375 C 204.765625 128.152344 204.511719 127.8125 204.320312 127.425781 C 204.128906 127.035156 204.023438 126.625 203.996094 126.195312 C 203.96875 125.761719 204.027344 125.339844 204.167969 124.933594 C 204.308594 124.523438 204.523438 124.15625 204.808594 123.832031 C 205.09375 123.507812 205.433594 123.25 205.820312 123.0625 C 206.210938 122.871094 206.621094 122.761719 207.054688 122.738281 C 207.484375 122.710938 207.90625 122.765625 208.316406 122.910156 C 208.722656 123.050781 209.089844 123.261719 209.414062 123.550781 L 353.765625 251.195312 C 354.015625 251.414062 354.226562 251.667969 354.394531 251.949219 C 354.566406 252.234375 354.691406 252.535156 354.773438 252.855469 C 354.851562 253.179688 354.882812 253.503906 354.863281 253.835938 C 354.84375 254.167969 354.773438 254.484375 354.65625 254.796875 C 354.539062 255.105469 354.378906 255.390625 354.171875 255.652344 C 353.96875 255.914062 353.730469 256.136719 353.457031 256.324219 C 353.1875 256.511719 352.890625 256.65625 352.574219 256.753906 C 352.257812 256.855469 351.933594 256.902344 351.605469 256.902344 Z M 351.605469 256.902344 " fill-opacity="1" fill-rule="nonzero"/><path fill="#ffdae7" d="M 351.605469 290.054688 C 350.78125 290.054688 350.0625 289.78125 349.445312 289.238281 L 167.503906 128.4375 C 167.179688 128.152344 166.921875 127.816406 166.730469 127.425781 C 166.539062 127.039062 166.429688 126.625 166.402344 126.195312 C 166.375 125.761719 166.433594 125.339844 166.574219 124.929688 C 166.714844 124.519531 166.925781 124.152344 167.214844 123.828125 C 167.5 123.503906 167.839844 123.246094 168.230469 123.054688 C 168.617188 122.867188 169.027344 122.757812 169.460938 122.730469 C 169.894531 122.707031 170.316406 122.761719 170.726562 122.90625 C 171.132812 123.046875 171.5 123.261719 171.824219 123.550781 L 353.765625 284.347656 C 354.015625 284.566406 354.222656 284.816406 354.394531 285.101562 C 354.566406 285.382812 354.691406 285.6875 354.773438 286.007812 C 354.851562 286.328125 354.882812 286.65625 354.863281 286.984375 C 354.84375 287.316406 354.773438 287.636719 354.65625 287.945312 C 354.539062 288.257812 354.378906 288.542969 354.175781 288.804688 C 353.96875 289.0625 353.730469 289.289062 353.457031 289.476562 C 353.1875 289.664062 352.890625 289.808594 352.574219 289.90625 C 352.257812 290.003906 351.933594 290.054688 351.605469 290.054688 Z M 351.605469 290.054688 " fill-opacity="1" fill-rule="nonzero"/><path fill="#ffdae7" d="M 351.605469 323.203125 C 350.78125 323.207031 350.0625 322.933594 349.445312 322.386719 L 129.914062 128.4375 C 129.589844 128.152344 129.335938 127.816406 129.144531 127.425781 C 128.957031 127.039062 128.851562 126.628906 128.824219 126.195312 C 128.796875 125.765625 128.855469 125.34375 128.996094 124.9375 C 129.136719 124.527344 129.347656 124.160156 129.636719 123.839844 C 129.921875 123.515625 130.257812 123.257812 130.648438 123.066406 C 131.035156 122.878906 131.445312 122.769531 131.875 122.742188 C 132.308594 122.714844 132.726562 122.773438 133.136719 122.910156 C 133.542969 123.050781 133.910156 123.261719 134.234375 123.550781 L 353.765625 317.496094 C 354.015625 317.714844 354.222656 317.96875 354.394531 318.25 C 354.566406 318.535156 354.691406 318.835938 354.773438 319.160156 C 354.851562 319.480469 354.882812 319.804688 354.863281 320.136719 C 354.84375 320.46875 354.773438 320.789062 354.65625 321.097656 C 354.539062 321.40625 354.378906 321.691406 354.175781 321.953125 C 353.96875 322.214844 353.730469 322.4375 353.457031 322.628906 C 353.1875 322.816406 352.890625 322.960938 352.574219 323.058594 C 352.257812 323.15625 351.933594 323.207031 351.605469 323.203125 Z M 351.605469 323.203125 " fill-opacity="1" fill-rule="nonzero"/><path fill="#ffdae7" d="M 351.605469 356.445312 C 350.78125 356.445312 350.0625 356.171875 349.445312 355.625 L 92.414062 128.4375 C 92.089844 128.152344 91.832031 127.816406 91.640625 127.425781 C 91.453125 127.035156 91.34375 126.625 91.316406 126.195312 C 91.289062 125.761719 91.347656 125.34375 91.488281 124.933594 C 91.628906 124.523438 91.839844 124.15625 92.128906 123.832031 C 92.414062 123.507812 92.753906 123.25 93.140625 123.0625 C 93.53125 122.871094 93.941406 122.761719 94.371094 122.738281 C 94.804688 122.710938 95.226562 122.765625 95.636719 122.90625 C 96.042969 123.046875 96.410156 123.261719 96.734375 123.550781 L 353.765625 350.734375 C 354.015625 350.953125 354.222656 351.207031 354.394531 351.488281 C 354.566406 351.773438 354.691406 352.074219 354.773438 352.398438 C 354.851562 352.71875 354.882812 353.042969 354.863281 353.375 C 354.84375 353.707031 354.773438 354.027344 354.65625 354.335938 C 354.539062 354.644531 354.378906 354.929688 354.175781 355.191406 C 353.96875 355.453125 353.730469 355.679688 353.457031 355.867188 C 353.1875 356.054688 352.890625 356.199219 352.574219 356.296875 C 352.257812 356.394531 351.933594 356.445312 351.605469 356.445312 Z M 351.605469 356.445312 " fill-opacity="1" fill-rule="nonzero"/><path fill="#ffdae7" d="M 351.605469 389.59375 C 350.78125 389.59375 350.0625 389.324219 349.445312 388.777344 L 54.910156 128.4375 C 54.585938 128.152344 54.328125 127.816406 54.140625 127.425781 C 53.949219 127.035156 53.839844 126.625 53.8125 126.195312 C 53.789062 125.761719 53.84375 125.34375 53.984375 124.933594 C 54.125 124.523438 54.339844 124.15625 54.625 123.832031 C 54.914062 123.507812 55.25 123.25 55.640625 123.0625 C 56.027344 122.871094 56.4375 122.761719 56.871094 122.738281 C 57.304688 122.710938 57.722656 122.765625 58.132812 122.90625 C 58.542969 123.046875 58.910156 123.261719 59.234375 123.550781 L 353.765625 383.886719 C 354.015625 384.105469 354.222656 384.359375 354.394531 384.640625 C 354.566406 384.925781 354.691406 385.226562 354.773438 385.546875 C 354.851562 385.871094 354.882812 386.195312 354.863281 386.527344 C 354.84375 386.859375 354.773438 387.175781 354.65625 387.488281 C 354.539062 387.796875 354.378906 388.082031 354.175781 388.34375 C 353.96875 388.605469 353.730469 388.828125 353.457031 389.015625 C 353.1875 389.207031 352.890625 389.347656 352.574219 389.445312 C 352.257812 389.546875 351.933594 389.59375 351.605469 389.59375 Z M 351.605469 389.59375 " fill-opacity="1" fill-rule="nonzero"/><path fill="#ffdae7" d="M 351.605469 422.746094 C 350.78125 422.746094 350.0625 422.472656 349.445312 421.929688 L 23.414062 133.835938 C 23.089844 133.546875 22.832031 133.210938 22.640625 132.820312 C 22.449219 132.433594 22.34375 132.023438 22.316406 131.589844 C 22.289062 131.15625 22.34375 130.738281 22.484375 130.328125 C 22.625 129.917969 22.839844 129.550781 23.125 129.226562 C 23.414062 128.902344 23.75 128.644531 24.140625 128.457031 C 24.527344 128.265625 24.941406 128.15625 25.371094 128.128906 C 25.804688 128.105469 26.222656 128.160156 26.632812 128.300781 C 27.042969 128.441406 27.410156 128.65625 27.734375 128.945312 L 353.765625 417.039062 C 354.015625 417.257812 354.222656 417.507812 354.394531 417.792969 C 354.566406 418.074219 354.691406 418.378906 354.773438 418.699219 C 354.851562 419.019531 354.882812 419.347656 354.863281 419.675781 C 354.84375 420.007812 354.773438 420.328125 354.65625 420.636719 C 354.539062 420.949219 354.378906 421.234375 354.175781 421.496094 C 353.96875 421.753906 353.730469 421.980469 353.457031 422.167969 C 353.1875 422.355469 352.890625 422.5 352.574219 422.597656 C 352.257812 422.695312 351.933594 422.746094 351.605469 422.746094 Z M 351.605469 422.746094 " fill-opacity="1" fill-rule="nonzero"/><path fill="#ffdae7" d="M 354.648438 458.59375 C 353.824219 458.597656 353.105469 458.324219 352.488281 457.773438 L 349.441406 455.078125 L 20.542969 164.550781 C 20.21875 164.261719 19.960938 163.925781 19.773438 163.535156 C 19.582031 163.148438 19.472656 162.738281 19.445312 162.304688 C 19.421875 161.875 19.476562 161.453125 19.617188 161.042969 C 19.757812 160.636719 19.972656 160.269531 20.257812 159.945312 C 20.546875 159.621094 20.882812 159.363281 21.269531 159.171875 C 21.660156 158.984375 22.070312 158.875 22.5 158.847656 C 22.933594 158.820312 23.355469 158.878906 23.761719 159.019531 C 24.171875 159.160156 24.539062 159.371094 24.863281 159.65625 L 353.765625 450.191406 L 356.8125 452.890625 C 357.0625 453.109375 357.269531 453.359375 357.441406 453.644531 C 357.613281 453.925781 357.738281 454.230469 357.820312 454.550781 C 357.898438 454.875 357.925781 455.199219 357.90625 455.53125 C 357.886719 455.859375 357.820312 456.179688 357.703125 456.488281 C 357.582031 456.800781 357.421875 457.085938 357.21875 457.34375 C 357.015625 457.605469 356.777344 457.832031 356.503906 458.019531 C 356.230469 458.207031 355.9375 458.347656 355.621094 458.449219 C 355.304688 458.546875 354.980469 458.59375 354.648438 458.59375 Z M 354.648438 458.59375 " fill-opacity="1" fill-rule="nonzero"/><path fill="#ffdae7" d="M 316.453125 458.160156 C 315.628906 458.160156 314.910156 457.886719 314.292969 457.34375 L 20.542969 197.699219 C 20.21875 197.414062 19.960938 197.074219 19.769531 196.6875 C 19.578125 196.296875 19.472656 195.886719 19.445312 195.457031 C 19.417969 195.023438 19.476562 194.601562 19.617188 194.191406 C 19.757812 193.785156 19.96875 193.417969 20.257812 193.09375 C 20.542969 192.769531 20.878906 192.511719 21.269531 192.320312 C 21.660156 192.132812 22.070312 192.023438 22.5 191.996094 C 22.933594 191.96875 23.355469 192.027344 23.761719 192.167969 C 24.171875 192.308594 24.539062 192.523438 24.863281 192.808594 L 318.613281 452.453125 C 318.863281 452.671875 319.070312 452.921875 319.242188 453.207031 C 319.414062 453.488281 319.542969 453.792969 319.621094 454.113281 C 319.699219 454.433594 319.730469 454.761719 319.710938 455.09375 C 319.691406 455.421875 319.621094 455.742188 319.503906 456.050781 C 319.386719 456.363281 319.226562 456.648438 319.023438 456.910156 C 318.816406 457.167969 318.578125 457.394531 318.308594 457.582031 C 318.035156 457.769531 317.738281 457.914062 317.421875 458.011719 C 317.105469 458.109375 316.785156 458.160156 316.453125 458.160156 Z M 316.453125 458.160156 " fill-opacity="1" fill-rule="nonzero"/><path fill="#ffdae7" d="M 278.949219 458.160156 C 278.125 458.160156 277.40625 457.886719 276.789062 457.34375 L 20.542969 230.851562 C 20.21875 230.566406 19.960938 230.226562 19.769531 229.839844 C 19.578125 229.449219 19.46875 229.039062 19.441406 228.605469 C 19.414062 228.175781 19.472656 227.753906 19.613281 227.34375 C 19.753906 226.933594 19.964844 226.566406 20.253906 226.242188 C 20.539062 225.917969 20.878906 225.660156 21.265625 225.46875 C 21.65625 225.28125 22.066406 225.171875 22.5 225.144531 C 22.933594 225.121094 23.355469 225.175781 23.761719 225.316406 C 24.171875 225.460938 24.539062 225.675781 24.863281 225.960938 L 281.113281 452.453125 C 281.359375 452.671875 281.570312 452.921875 281.742188 453.207031 C 281.914062 453.488281 282.039062 453.792969 282.117188 454.113281 C 282.199219 454.433594 282.226562 454.761719 282.207031 455.089844 C 282.1875 455.421875 282.121094 455.742188 282.003906 456.050781 C 281.886719 456.363281 281.722656 456.648438 281.519531 456.910156 C 281.316406 457.167969 281.078125 457.394531 280.804688 457.582031 C 280.53125 457.769531 280.238281 457.914062 279.921875 458.011719 C 279.605469 458.109375 279.28125 458.160156 278.949219 458.160156 Z M 278.949219 458.160156 " fill-opacity="1" fill-rule="nonzero"/><path fill="#ffdae7" d="M 241.449219 458.160156 C 240.625 458.160156 239.90625 457.886719 239.289062 457.34375 L 20.542969 264.003906 C 20.21875 263.714844 19.960938 263.378906 19.769531 262.988281 C 19.582031 262.601562 19.472656 262.191406 19.445312 261.757812 C 19.417969 261.328125 19.476562 260.90625 19.617188 260.496094 C 19.757812 260.089844 19.972656 259.722656 20.257812 259.398438 C 20.542969 259.074219 20.882812 258.816406 21.269531 258.625 C 21.660156 258.4375 22.070312 258.328125 22.5 258.300781 C 22.933594 258.273438 23.355469 258.332031 23.761719 258.472656 C 24.171875 258.613281 24.539062 258.824219 24.863281 259.113281 L 243.609375 452.453125 C 243.859375 452.671875 244.066406 452.921875 244.238281 453.207031 C 244.410156 453.488281 244.535156 453.792969 244.617188 454.113281 C 244.695312 454.433594 244.726562 454.761719 244.707031 455.09375 C 244.6875 455.421875 244.617188 455.742188 244.5 456.050781 C 244.382812 456.363281 244.222656 456.648438 244.019531 456.910156 C 243.8125 457.167969 243.574219 457.394531 243.300781 457.582031 C 243.03125 457.769531 242.734375 457.914062 242.417969 458.011719 C 242.101562 458.109375 241.777344 458.160156 241.449219 458.160156 Z M 241.449219 458.160156 " fill-opacity="1" fill-rule="nonzero"/><path fill="#ffdae7" d="M 203.945312 458.160156 C 203.121094 458.160156 202.402344 457.886719 201.785156 457.34375 L 20.542969 297.242188 C 20.21875 296.953125 19.960938 296.617188 19.773438 296.226562 C 19.585938 295.839844 19.476562 295.429688 19.449219 294.996094 C 19.425781 294.566406 19.480469 294.148438 19.621094 293.738281 C 19.761719 293.328125 19.976562 292.964844 20.261719 292.640625 C 20.546875 292.316406 20.886719 292.058594 21.273438 291.867188 C 21.664062 291.679688 22.070312 291.570312 22.503906 291.542969 C 22.933594 291.515625 23.355469 291.574219 23.761719 291.710938 C 24.171875 291.851562 24.539062 292.066406 24.863281 292.351562 L 206.105469 452.453125 C 206.355469 452.671875 206.566406 452.921875 206.738281 453.207031 C 206.910156 453.488281 207.035156 453.792969 207.113281 454.113281 C 207.195312 454.433594 207.222656 454.761719 207.203125 455.09375 C 207.183594 455.421875 207.117188 455.742188 207 456.050781 C 206.882812 456.363281 206.71875 456.648438 206.515625 456.910156 C 206.3125 457.167969 206.074219 457.394531 205.800781 457.582031 C 205.527344 457.769531 205.234375 457.914062 204.917969 458.011719 C 204.601562 458.109375 204.277344 458.160156 203.945312 458.160156 Z M 203.945312 458.160156 " fill-opacity="1" fill-rule="nonzero"/><path fill="#ffdae7" d="M 166.355469 458.160156 C 165.535156 458.160156 164.8125 457.886719 164.199219 457.34375 L 20.542969 330.394531 C 20.21875 330.105469 19.960938 329.769531 19.773438 329.378906 C 19.585938 328.992188 19.476562 328.582031 19.449219 328.148438 C 19.425781 327.71875 19.480469 327.296875 19.621094 326.890625 C 19.761719 326.480469 19.976562 326.113281 20.261719 325.792969 C 20.546875 325.46875 20.886719 325.210938 21.273438 325.019531 C 21.660156 324.832031 22.070312 324.722656 22.503906 324.695312 C 22.933594 324.667969 23.355469 324.726562 23.761719 324.863281 C 24.171875 325.003906 24.539062 325.21875 24.863281 325.503906 L 168.519531 452.453125 C 168.765625 452.671875 168.976562 452.921875 169.148438 453.207031 C 169.320312 453.488281 169.445312 453.792969 169.527344 454.113281 C 169.605469 454.433594 169.636719 454.761719 169.617188 455.09375 C 169.597656 455.421875 169.527344 455.742188 169.410156 456.050781 C 169.292969 456.363281 169.132812 456.648438 168.925781 456.910156 C 168.722656 457.167969 168.484375 457.394531 168.210938 457.582031 C 167.941406 457.769531 167.644531 457.914062 167.328125 458.011719 C 167.011719 458.109375 166.6875 458.160156 166.355469 458.160156 Z M 166.355469 458.160156 " fill-opacity="1" fill-rule="nonzero"/><path fill="#ffdae7" d="M 128.769531 458.160156 C 127.945312 458.160156 127.222656 457.886719 126.609375 457.34375 L 20.542969 363.628906 C 20.21875 363.34375 19.960938 363.007812 19.769531 362.617188 C 19.582031 362.230469 19.472656 361.816406 19.445312 361.386719 C 19.417969 360.953125 19.476562 360.535156 19.617188 360.125 C 19.757812 359.714844 19.972656 359.347656 20.257812 359.023438 C 20.542969 358.699219 20.882812 358.441406 21.269531 358.253906 C 21.660156 358.0625 22.070312 357.957031 22.5 357.929688 C 22.933594 357.902344 23.355469 357.957031 23.761719 358.097656 C 24.171875 358.238281 24.539062 358.453125 24.863281 358.738281 L 130.929688 452.453125 C 131.175781 452.671875 131.386719 452.921875 131.558594 453.207031 C 131.730469 453.488281 131.855469 453.792969 131.9375 454.113281 C 132.015625 454.433594 132.046875 454.761719 132.027344 455.09375 C 132.007812 455.421875 131.9375 455.742188 131.820312 456.050781 C 131.703125 456.363281 131.542969 456.648438 131.339844 456.910156 C 131.132812 457.167969 130.894531 457.394531 130.621094 457.582031 C 130.351562 457.769531 130.054688 457.914062 129.738281 458.011719 C 129.421875 458.109375 129.097656 458.160156 128.769531 458.160156 Z M 128.769531 458.160156 " fill-opacity="1" fill-rule="nonzero"/><path fill="#ffdae7" d="M 91.265625 458.160156 C 90.441406 458.160156 89.722656 457.886719 89.105469 457.34375 L 20.542969 396.78125 C 20.21875 396.496094 19.960938 396.160156 19.773438 395.769531 C 19.585938 395.382812 19.476562 394.972656 19.449219 394.539062 C 19.425781 394.109375 19.480469 393.6875 19.621094 393.28125 C 19.761719 392.871094 19.976562 392.503906 20.261719 392.179688 C 20.546875 391.859375 20.886719 391.601562 21.273438 391.410156 C 21.664062 391.222656 22.070312 391.113281 22.503906 391.085938 C 22.933594 391.058594 23.355469 391.113281 23.761719 391.253906 C 24.171875 391.394531 24.539062 391.605469 24.863281 391.890625 L 93.429688 452.453125 C 93.675781 452.671875 93.886719 452.921875 94.058594 453.207031 C 94.230469 453.488281 94.355469 453.792969 94.433594 454.113281 C 94.515625 454.433594 94.546875 454.761719 94.523438 455.09375 C 94.503906 455.421875 94.4375 455.742188 94.320312 456.050781 C 94.203125 456.363281 94.042969 456.648438 93.835938 456.910156 C 93.632812 457.167969 93.394531 457.394531 93.121094 457.582031 C 92.847656 457.769531 92.554688 457.914062 92.238281 458.011719 C 91.921875 458.109375 91.597656 458.160156 91.265625 458.160156 Z M 91.265625 458.160156 " fill-opacity="1" fill-rule="nonzero"/><path fill="#ffdae7" d="M 53.675781 458.160156 C 52.855469 458.160156 52.136719 457.890625 51.519531 457.34375 L 20.542969 430.023438 C 20.21875 429.738281 19.960938 429.398438 19.773438 429.011719 C 19.582031 428.621094 19.472656 428.210938 19.445312 427.777344 C 19.417969 427.347656 19.472656 426.925781 19.613281 426.515625 C 19.753906 426.105469 19.96875 425.738281 20.253906 425.414062 C 20.539062 425.089844 20.878906 424.832031 21.265625 424.644531 C 21.65625 424.453125 22.066406 424.34375 22.496094 424.316406 C 22.929688 424.289062 23.351562 424.347656 23.761719 424.488281 C 24.167969 424.628906 24.535156 424.839844 24.859375 425.128906 L 55.835938 452.449219 C 56.085938 452.667969 56.296875 452.917969 56.46875 453.203125 C 56.640625 453.488281 56.765625 453.789062 56.84375 454.109375 C 56.925781 454.433594 56.957031 454.757812 56.9375 455.089844 C 56.917969 455.421875 56.847656 455.742188 56.730469 456.050781 C 56.613281 456.359375 56.453125 456.648438 56.25 456.90625 C 56.042969 457.167969 55.804688 457.394531 55.53125 457.582031 C 55.261719 457.769531 54.964844 457.914062 54.648438 458.011719 C 54.332031 458.109375 54.007812 458.160156 53.675781 458.160156 Z M 53.675781 458.160156 " fill-opacity="1" fill-rule="nonzero"/><g clip-path="url(#803c352126)"><path fill="#ffdae7" d="M 95.199219 121.589844 L 109.96875 121.589844 L 109.96875 128.121094 L 95.199219 128.121094 Z M 95.199219 121.589844 " fill-opacity="1" fill-rule="nonzero"/></g></svg>