<svg width="1250" height="1519" xmlns="http://www.w3.org/2000/svg" xmlns:xlink="http://www.w3.org/1999/xlink" xml:space="preserve" overflow="hidden"><g transform="translate(-1575 -478)"><path d="M2172.5 886.777C2090.91 886.777 2024.78 952.915 2024.78 1034.5 2024.78 1116.09 2090.91 1182.22 2172.5 1182.22 2254.09 1182.22 2320.22 1116.09 2320.22 1034.5 2320.22 952.915 2254.09 886.777 2172.5 886.777ZM2172.5 796C2304.22 796 2411 902.78 2411 1034.5 2411 1166.22 2304.22 1273 2172.5 1273 2040.78 1273 1934 1166.22 1934 1034.5 1934 902.78 2040.78 796 2172.5 796Z" fill-rule="evenodd"/><path d="M2196.41 1063.35 2196.41 1433.5 2200 1433.67C2395.03 1433.67 2555.43 1285.45 2574.72 1095.51L2576.35 1063.35ZM1823.65 1063.35 1825.28 1095.51C1842.16 1261.71 1967.08 1395.96 2128.7 1426.93L2149.94 1429.96 2149.94 1063.35ZM2149.94 684 2133.32 686.217C1981.83 713.276 1861.72 830.903 1830.99 981.089L1825.52 1016.88 2149.94 1016.88ZM2200 680.333 2196.41 680.492 2196.41 1016.88 2574.48 1016.88 2569.01 981.089C2533.89 809.448 2382.02 680.333 2200 680.333ZM2200 587C2459.57 587 2670 797.426 2670 1057 2670 1316.57 2459.57 1527 2200 1527 1940.43 1527 1730 1316.57 1730 1057 1730 797.426 1940.43 587 2200 587Z" fill="#4472C4" fill-rule="evenodd"/><path d="M2270.11 1762.15 2270.11 1795.06 2291.41 1795.06C2297.15 1794.89 2301.44 1793.18 2304.31 1789.92 2307.18 1786.66 2308.61 1782.89 2308.61 1778.61 2308.61 1774.32 2307.18 1770.55 2304.31 1767.3 2301.44 1764.04 2297.15 1762.32 2291.41 1762.15ZM2364.04 1728.28 2464 1728.28 2464 1762.36 2400.73 1762.36 2400.73 1784.71 2458.93 1784.71 2458.93 1816.15 2400.73 1816.15 2400.73 1837.69 2464 1837.69 2464 1871.97 2364.04 1871.97ZM2233.42 1728.28 2290.81 1728.28C2305.93 1728.15 2318.42 1731.81 2328.27 1739.29 2338.12 1746.76 2343.4 1758.85 2344.13 1775.56 2344.05 1788.82 2341.53 1799.31 2336.58 1807.02 2331.63 1814.74 2324.76 1819.95 2315.96 1822.64L2355.08 1871.97 2309.88 1871.97 2276.6 1826.3 2270.11 1826.3 2270.11 1871.97 2233.42 1871.97ZM1975.62 1728.28 2010.08 1728.28 2044.77 1789.57 2056.95 1818.39 2057.96 1818.19C2057.85 1817.88 2057.48 1815.74 2056.86 1811.77 2056.24 1807.79 2055.62 1803.82 2055 1799.85 2054.38 1795.87 2054.02 1793.73 2053.91 1793.43L2053.91 1728.28 2089.98 1728.28 2089.98 1871.97 2053.3 1871.97 2020.83 1815.35 2008.25 1786.53 2007.24 1786.73 2011.9 1814.53 2011.9 1871.97 1975.62 1871.97ZM1855.32 1728.28 1955.27 1728.28 1955.27 1762.36 1892 1762.36 1892 1784.71 1950.2 1784.71 1950.2 1816.15 1892 1816.15 1892 1837.69 1955.27 1837.69 1955.27 1871.97 1855.32 1871.97ZM2104.6 1728.08 2217.54 1728.08 2217.54 1762.56 2179.41 1762.56 2179.41 1871.97 2142.73 1871.97 2142.73 1762.56 2104.6 1762.56ZM1792.17 1726.25C1801.27 1726.03 1810.44 1728.35 1819.7 1733.2 1828.95 1738.05 1836.6 1746.75 1842.66 1759.31L1813.05 1771.29C1809.47 1765.39 1804.42 1761.77 1797.9 1760.44 1791.37 1759.1 1785.39 1759.75 1779.94 1762.39 1774.5 1765.03 1771.61 1769.35 1771.28 1775.35L1771.28 1824.9C1771.42 1829.24 1773.16 1832.72 1776.47 1835.32 1779.78 1837.93 1783.79 1839.47 1788.49 1839.94 1793.19 1840.42 1797.69 1839.64 1801.99 1837.6 1806.29 1835.56 1809.51 1832.07 1811.63 1827.13L1843.27 1841.75C1837.01 1853.3 1829.15 1861.59 1819.7 1866.62 1810.24 1871.65 1800.86 1874.11 1791.56 1874 1781.99 1874 1772.92 1872.17 1764.37 1868.53 1755.81 1864.88 1748.82 1859.42 1743.4 1852.15 1737.98 1844.87 1735.18 1835.79 1735 1824.9L1735 1775.35C1735.17 1764.52 1737.98 1755.47 1743.42 1748.19 1748.86 1740.91 1755.91 1735.44 1764.55 1731.77 1773.19 1728.09 1782.4 1726.26 1792.17 1726.25ZM1794 1587.06C1788.08 1587.08 1782.88 1588.47 1778.38 1591.22 1773.88 1593.98 1771.51 1598.01 1771.28 1603.3L1771.28 1652.44C1771.53 1657.71 1773.97 1661.64 1778.61 1664.22 1783.24 1666.8 1788.58 1668.09 1794.61 1668.08 1800.64 1668.07 1805.94 1666.76 1810.51 1664.14 1815.09 1661.52 1817.5 1657.62 1817.74 1652.44L1817.74 1603.3C1817.49 1597.74 1815 1593.64 1810.29 1591 1805.57 1588.35 1800.14 1587.04 1794 1587.06ZM1989.37 1556.03 2089.33 1556.03 2089.33 1590.51 2026.06 1590.51 2026.06 1616.32 2081.42 1616.32 2081.42 1650.19 2026.06 1650.19 2026.06 1699.72 1989.37 1699.72ZM1872.5 1556.03 1972.46 1556.03 1972.46 1590.51 1909.19 1590.51 1909.19 1616.32 1964.55 1616.32 1964.55 1650.19 1909.19 1650.19 1909.19 1699.72 1872.5 1699.72ZM1794.41 1554C1804.53 1554 1814.1 1555.83 1823.12 1559.48 1832.13 1563.13 1839.49 1568.61 1845.19 1575.91 1850.89 1583.21 1853.84 1592.35 1854.02 1603.3L1854.02 1652.44C1853.84 1663.4 1850.91 1672.53 1845.24 1679.84 1839.58 1687.14 1832.25 1692.62 1823.27 1696.27 1814.28 1699.92 1804.73 1701.75 1794.61 1701.75 1784.49 1701.75 1774.92 1699.92 1765.9 1696.27 1756.89 1692.62 1749.53 1687.14 1743.83 1679.84 1738.13 1672.53 1735.18 1663.4 1735 1652.44L1735 1603.3C1735.18 1592.28 1738.11 1583.12 1743.78 1575.82 1749.44 1568.52 1756.77 1563.06 1765.75 1559.43 1774.74 1555.81 1784.29 1554 1794.41 1554Z" fill-rule="evenodd"/><path d="M1617.85 523.574 1617.85 1951.43 2782.15 1951.43 2782.15 523.574ZM1597.91 478 2802.09 478C2814.74 478 2825 488.26 2825 500.917L2825 1974.08C2825 1986.74 2814.74 1997 2802.09 1997L1597.91 1997C1585.26 1997 1575 1986.74 1575 1974.08L1575 500.917C1575 488.26 1585.26 478 1597.91 478Z" fill-rule="evenodd"/></g></svg>